<svg width="427" height="141" viewBox="0 0 427 141" fill="none" xmlns="http://www.w3.org/2000/svg">
<path d="M137.993 19.544C141.465 27.776 140.401 38.136 134.297 45.136C131.889 47.32 128.865 48.552 125.505 47.6C123.769 47.152 122.201 46.088 121.249 44.52C119.849 42.56 120.017 39.648 121.081 37.576C121.921 36.008 123.545 35.336 124.945 34.664C127.409 33.936 128.585 37.8 130.825 36.008C131.105 34.888 130.209 34.44 129.593 33.824C130.097 32.984 130.545 33.936 130.937 34.216C132.001 35.392 132.169 37.24 131.777 38.752C131.385 40.04 130.433 41.048 129.369 41.72C126.401 43.512 124.441 38.248 121.977 41.16C121.529 42.504 122.033 43.792 122.873 44.856C123.769 46.032 125.281 46.032 126.625 46.424C129.537 46.424 132.113 44.24 133.289 41.72C135.361 34.272 133.457 25.984 128.305 20.552C125.841 21.056 123.601 20.384 121.529 19.544L120.969 20.384C123.041 24.36 122.257 30.128 119.905 33.824C118.617 35.784 116.545 37.016 114.753 38.528C115.817 39.144 117.049 39.256 118.113 38.64C118.561 38.472 118.449 37.744 119.065 37.912C119.065 41.664 114.753 43.96 113.409 47.264L112.849 47.88C112.009 46.984 111.617 45.64 110.329 45.136C109.433 44.744 108.257 44.912 107.865 45.976C107.249 46.872 109.881 47.824 107.865 47.992C106.297 46.592 105.905 44.352 106.577 42.336C107.081 40.768 108.369 39.256 109.937 38.64C111.001 38.192 112.401 38.248 113.577 38.024C115.761 36.68 116.601 34.664 116.993 32.48C116.993 30.184 116.545 28.168 115.593 26.432C111.281 22.4 107.697 17.92 108.425 11.76C109.041 7.672 112.121 3.696 115.929 2.016C122.481 -0.840006 131.889 0 135.641 7.168C136.257 8.288 136.593 9.744 136.593 11.256C136.593 12.768 136.313 14.168 135.473 15.232C136.089 16.856 137.377 18.032 137.993 19.544ZM115.369 30.688C116.041 33.376 115.033 35.952 112.961 37.464C112.793 36.512 114.193 35.952 114.361 34.944C114.193 33.376 115.201 31.304 114.025 29.96C113.521 29.344 112.905 28.28 111.841 28.672C109.601 31.024 114.865 31.472 113.297 34.216C112.793 35.056 112.177 35.952 111.113 36.12C110.441 35.896 109.209 35.896 109.209 34.944C110.105 35.336 110.609 35.672 111.673 35.28C112.121 34.888 112.009 34.216 111.841 33.824C110.777 32.592 108.929 32.872 108.593 30.968C108.425 29.904 108.873 29.176 109.321 28.336C109.937 27.832 110.553 27.328 111.393 27.328C113.465 27.16 114.641 29.064 115.369 30.688ZM134.633 14.672C135.137 13.72 135.417 12.432 135.417 11.144C135.417 9.8 135.137 8.512 134.633 7.616C132.393 2.912 127.297 1.568 122.705 1.736C119.121 1.904 115.089 3.752 113.913 7.448C112.121 12.488 116.657 15.792 119.793 18.928C120.969 17.192 118.281 16.072 118.729 14.28C118.449 12.208 119.065 10.528 120.521 9.24C122.481 6.832 125.449 8.176 127.857 8.624C128.305 8.456 128.753 7.952 128.585 7.336C128.305 6.16 127.017 6.328 126.401 5.544L126.849 5.152C127.913 4.984 128.641 5.824 129.481 6.44C130.321 7.392 130.601 8.904 130.209 10.08C129.817 11.592 128.249 12.264 127.129 12.768C125.337 13.608 123.545 11.872 121.921 11.872C121.417 11.872 120.857 12.208 120.353 12.936C119.737 14.056 120.129 15.512 120.633 16.576C122.873 15.064 125.113 13.16 127.969 13.328C130.433 13.16 132.617 14.28 134.633 14.672ZM126.849 19.656C126.009 18.536 124.497 18.816 123.153 18.648V19.096C124.329 19.544 125.505 20.104 126.849 19.656ZM155.345 20.944C153.665 24.248 150.193 25.984 147.225 27.496C146.609 30.856 147.001 34.776 147.057 38.08C147.505 39.368 148.345 40.936 149.857 41.328C150.865 41.44 151.705 41.216 152.433 40.6C153.273 39.76 153.273 38.36 153.049 37.24C151.985 35 148.905 33.264 150.137 30.52C150.529 29.624 151.201 29.064 152.041 28.616C153.105 28.448 153.945 29.4 154.337 30.24C154.505 30.968 154.841 31.976 154.113 32.592C153.721 31.92 153.497 31.192 152.769 30.8C151.705 30.576 151.369 31.416 151.201 32.144C151.201 34.048 153.161 35.168 153.609 36.96C155.681 41.888 150.473 44.128 148.401 47.712C146.049 45.472 141.961 43.68 141.401 40.152L141.513 22.4C141.513 16.352 149.185 15.4 152.321 11.48L152.769 11.592C154.449 13.496 155.961 15.848 155.961 18.424C155.961 19.264 155.737 20.104 155.345 20.944ZM150.137 23.52C150.753 22.008 150.585 20.384 149.969 18.872C149.353 17.976 148.681 16.744 147.337 16.688V26.04C148.513 25.648 149.689 24.696 150.137 23.52ZM179.106 38.808C179.106 42 175.802 44.464 174.29 47.264C172.778 44.968 169.698 43.624 169.362 40.712C167.738 43.12 164.77 44.856 163.258 47.432C161.746 45.192 159.506 42.504 156.818 41.44C157.266 40.6 158.442 40.544 159.17 39.872C161.522 38.248 164.378 35.784 164.042 33.32C162.026 30.408 160.682 28.448 160.066 27.44C158.89 25.368 158.05 23.184 159.17 20.944C161.41 16.464 166.338 15.232 169.194 11.144L177.818 16.128C176.026 16.744 175.41 18.76 175.466 20.608V39.984C176.082 40.824 176.978 40.824 177.818 40.6C178.49 40.096 178.21 39.088 179.106 38.808ZM169.194 18.76C167.906 17.92 166.786 16.688 165.274 16.24C160.514 19.656 167.794 24.248 168.69 28C169.138 31.64 166.114 34.888 163.482 37.24C164.322 38.808 165.33 39.984 166.618 41.72C168.466 41.384 168.578 39.312 169.194 37.968V18.76ZM198.877 16.072C197.365 17.584 195.853 19.432 195.013 21.392C194.341 21.224 194.229 20.384 193.837 19.768C192.997 18.76 191.989 17.192 190.421 17.976L189.805 18.928C189.805 25.704 189.861 33.04 190.253 39.592C190.869 40.656 192.045 41.216 193.221 40.768C193.837 40.32 194.509 39.984 194.565 39.144C195.629 34.776 187.901 31.136 193.221 27.328C194.285 26.824 195.293 27.552 195.741 28.392C196.133 29.008 195.741 29.68 195.461 30.184C195.013 29.96 194.509 29.288 193.781 29.288C193.613 29.288 193.389 29.4 193.221 29.568C192.101 30.016 192.717 31.416 192.885 32.144C194.957 34.664 197.365 37.856 195.461 41.216C194.117 43.512 191.429 45.136 190.421 47.656C187.733 44.912 184.653 43.456 181.293 42.392L183.701 39.872C183.869 31.976 184.149 24.92 183.421 17.248C182.973 16.8 182.413 16.184 181.741 16.688C181.069 16.856 180.509 17.752 180.005 18.144C180.453 15.288 184.037 13.328 185.325 10.696C187.117 12.04 189.637 13.608 189.805 16.072C189.581 16.24 189.749 16.688 189.693 16.912L189.805 17.136C191.149 15.176 193.445 13.44 194.565 11.256C195.685 12.32 196.525 13.888 197.869 15.176C198.261 15.344 198.485 15.68 198.877 16.072ZM213.358 13.832C212.518 15.792 212.126 17.92 212.07 20.216C211.902 20.384 211.734 20.44 211.51 20.44C210.838 20.44 209.998 20.104 209.214 20.104L208.878 20.496L208.766 40.208C209.158 40.88 209.27 41.72 210.11 42.112C211.398 42.392 212.35 41.048 213.134 40.6C212.686 43.624 209.214 45.64 208.15 48.496C206.638 46.256 202.83 45.976 202.83 42.728V20.384C202.382 19.936 201.822 19.936 201.206 19.936C200.59 19.936 199.974 19.936 199.526 19.656C200.87 17.416 202.942 13.72 203.11 11.088C204.006 6.944 208.318 3.416 212.518 2.8L212.91 3.192C209.046 4.648 208.654 10.528 208.654 14.112C209.998 15.008 211.846 14.392 213.134 13.496L213.358 13.832ZM242.649 38.696C241.753 43.344 236.041 44.352 234.249 48.664C231.785 45.528 228.537 43.736 225.177 42.448C226.689 41.16 228.481 39.648 228.929 37.632C230.273 31.248 222.713 26.88 226.521 20.384C228.761 16.352 233.353 14.784 236.041 11.312H236.489C238.841 13.216 242.481 15.456 242.761 18.704L242.649 38.696ZM236.489 19.488C236.041 18.2 234.697 17.248 233.521 16.8C232.457 16.576 231.225 16.52 230.385 17.416C227.697 22.848 235.145 26.096 233.353 31.808C232.681 34.048 231.281 35.952 230.105 37.968C232.289 39.144 234.417 40.712 236.489 42.56H236.937L236.489 19.488ZM258.666 5.432C256.93 6.496 255.138 8.344 254.298 10.304C253.85 8.4 253.01 6.048 250.938 5.432C249.762 5.264 248.81 5.544 248.418 6.888C248.362 8.68 249.426 10.248 250.602 11.424C251.274 12.096 252.058 12.712 252.954 13.328L256.762 12.488L256.986 12.712C255.922 14.896 255.53 17.528 255.138 19.768C254.522 19.152 253.85 19.04 253.122 18.872L252.618 19.264L252.954 43.064C251.89 47.712 250.938 52.192 249.874 56.728L249.482 56L246.962 42.168L246.682 19.04C245.842 18.424 244.61 18.816 243.77 18.76C244.386 16.8 245.842 15.008 246.682 13.216C246.402 8.848 246.85 4.648 250.602 2.408C252.562 1.288 255.418 1.568 256.986 3.136L258.666 5.432ZM283.96 13.832C283.12 15.792 282.728 17.92 282.672 20.216C282.504 20.384 282.336 20.44 282.112 20.44C281.44 20.44 280.6 20.104 279.816 20.104L279.48 20.496L279.368 40.208C279.76 40.88 279.872 41.72 280.712 42.112C282 42.392 282.952 41.048 283.736 40.6C283.288 43.624 279.816 45.64 278.752 48.496C277.24 46.256 273.432 45.976 273.432 42.728V20.384C272.984 19.936 272.424 19.936 271.808 19.936C271.192 19.936 270.576 19.936 270.128 19.656C271.472 17.416 273.544 13.72 273.712 11.088C274.608 6.944 278.92 3.416 283.12 2.8L283.512 3.192C279.648 4.648 279.256 10.528 279.256 14.112C280.6 15.008 282.448 14.392 283.736 13.496L283.96 13.832ZM303.883 56C303.267 57.176 302.147 57.624 300.859 57.624C299.795 57.848 298.731 57.288 297.891 56.672C297.387 56.28 296.939 55.888 296.491 55.44C295.483 55.944 294.475 56.392 293.467 56.784C291.731 57.4 289.659 57.848 288.091 57.176C286.803 56.56 285.683 55.552 285.179 54.264C284.955 53.088 285.235 52.024 286.019 51.072C286.859 49.616 288.259 49.616 289.659 49.448C292.571 49.168 294.251 51.632 296.491 52.808C297.555 50.512 298.283 47.936 298.283 45.248L297.835 18.536C297.667 18.144 297.219 17.752 296.827 17.584C295.483 17.136 294.755 18.536 294.307 19.488C293.579 26.04 293.859 32.984 294.027 39.704C293.859 41.384 295.987 41.944 296.603 42.896C294.475 43.456 292.403 46.032 291.115 47.88C289.547 46.368 287.811 44.744 285.571 44.52C287.867 43.344 288.371 40.712 288.091 38.416V18.76C287.195 18.144 286.187 19.488 285.179 19.04C290.331 15.456 285.739 7.728 291.115 4.144C293.355 1.96 296.603 1.512 299.515 2.128C301.027 2.52 302.427 3.528 303.155 4.872C303.491 5.376 303.659 5.992 303.659 6.72C303.659 7.448 303.491 8.064 303.155 8.568C302.427 9.688 301.419 10.304 300.131 10.416C299.067 10.248 297.947 9.632 297.555 8.568C297.163 7.896 297.331 7.336 297.555 6.664C297.947 6.048 298.619 5.656 299.291 6.048C299.683 6.328 300.019 6.72 299.851 7.224C299.683 8.008 298.507 7.56 298.675 8.568C299.347 9.464 300.411 9.8 301.475 9.408C302.651 8.568 302.819 7.224 302.651 5.936C302.259 4.816 301.419 3.64 300.243 3.248C298.955 2.8 297.163 2.912 296.099 3.752C292.235 7.336 294.195 13.216 293.915 17.808L294.307 17.696C295.651 15.624 297.891 13.832 299.291 11.872C300.859 13.44 302.819 14.784 303.659 16.856C303.715 21.392 303.771 25.592 303.771 29.792C303.771 33.88 303.715 38.024 303.659 42.336C303.659 46.872 301.027 50.96 297.667 54.544C298.059 55.664 299.179 56.056 300.131 56.448C300.971 56.504 301.811 56.504 302.427 55.888C302.315 55.272 301.755 54.88 301.755 54.376C301.755 54.208 301.867 53.984 302.035 53.816C302.427 53.536 302.987 53.144 303.491 53.536C304.387 54.152 304.051 55.272 303.883 56ZM295.483 53.704C293.915 51.744 291.843 50.288 289.211 50.512C287.923 50.568 286.691 51.24 286.187 52.528C285.683 53.872 286.747 54.936 287.475 56C289.267 56.84 291.731 56.56 293.467 55.72C294.195 55.216 295.315 54.768 295.483 53.704ZM319.462 20.944C317.782 24.248 314.31 25.984 311.342 27.496C310.726 30.856 311.118 34.776 311.174 38.08C311.622 39.368 312.462 40.936 313.974 41.328C314.982 41.44 315.822 41.216 316.55 40.6C317.39 39.76 317.39 38.36 317.166 37.24C316.102 35 313.022 33.264 314.254 30.52C314.646 29.624 315.318 29.064 316.158 28.616C317.222 28.448 318.062 29.4 318.454 30.24C318.622 30.968 318.958 31.976 318.23 32.592C317.838 31.92 317.614 31.192 316.886 30.8C315.822 30.576 315.486 31.416 315.318 32.144C315.318 34.048 317.278 35.168 317.726 36.96C319.798 41.888 314.59 44.128 312.518 47.712C310.166 45.472 306.078 43.68 305.518 40.152L305.63 22.4C305.63 16.352 313.302 15.4 316.438 11.48L316.886 11.592C318.566 13.496 320.078 15.848 320.078 18.424C320.078 19.264 319.854 20.104 319.462 20.944ZM314.254 23.52C314.87 22.008 314.702 20.384 314.086 18.872C313.47 17.976 312.798 16.744 311.454 16.688V26.04C312.63 25.648 313.806 24.696 314.254 23.52ZM51.5299 98.64C51.2419 108.624 43.7539 118.992 34.1539 122.064C26.9539 124.368 19.0819 122.64 13.2259 118.896C-0.0221249 108.24 -2.51813 89.232 2.37788 73.68C4.68188 68.016 8.61788 60.912 15.0499 59.088C16.0099 54.096 21.0979 50.736 25.6099 49.008C31.6579 50.544 31.0819 42.384 36.4579 42.672C39.5299 42.384 42.9859 41.904 45.2899 44.208C45.0019 46.896 43.2739 43.536 42.0259 44.016C40.8739 44.016 39.8179 44.4 39.1459 45.456C39.6259 48.912 43.7539 48.912 45.7699 51.504C47.9779 53.904 49.0339 57.552 47.7859 60.912C46.7299 63.6 43.7539 65.04 41.4499 66.096C39.2419 66.768 36.8419 66.48 35.0179 65.424C33.9619 64.56 32.2339 63.6 32.1379 62.16L32.9059 61.392C33.9619 62.448 34.4419 63.984 35.8819 64.368C37.0339 64.464 38.0899 63.216 38.4739 62.16C37.9939 56.688 30.6979 57.744 29.9299 52.272C30.0259 51.6 29.6419 50.928 28.8739 50.256C26.5699 50.16 25.0339 52.368 24.3619 54.288C22.4419 65.52 37.4179 69.84 38.9539 79.824C40.7779 85.872 40.2979 93.168 36.4579 98.16C32.3299 103.248 26.2819 105.648 19.8499 103.728C17.5459 103.056 15.7219 101.04 13.8019 99.6C15.0499 105.264 21.3859 111.312 27.1459 112.56C35.1139 114.384 43.0819 111.888 47.7859 104.688C49.2259 102.672 50.0899 100.464 50.8579 98.16C51.1459 98.064 51.2419 98.352 51.5299 98.64ZM27.4339 97.104C32.8099 82.416 13.2259 75.984 13.9939 61.584C8.71388 66.384 8.61788 73.776 8.90588 81.072C11.0179 88.368 11.0179 99.12 20.6179 100.656C23.4019 101.136 25.8019 99.504 27.4339 97.104ZM85.8611 138C84.8051 140.016 82.8851 140.784 80.6771 140.784C78.8531 141.168 77.0291 140.208 75.5891 139.152C74.7251 138.48 73.9571 137.808 73.1891 137.04C71.4611 137.904 69.7331 138.672 68.0051 139.344C65.0291 140.4 61.4771 141.168 58.7891 140.016C56.5811 138.96 54.6611 137.232 53.7971 135.024C53.4131 133.008 53.8931 131.184 55.2371 129.552C56.6771 127.056 59.0771 127.056 61.4771 126.768C66.4691 126.288 69.3491 130.512 73.1891 132.528C75.0131 128.592 76.2611 124.176 76.2611 119.568L75.4931 73.776C75.2051 73.104 74.4371 72.432 73.7651 72.144C71.4611 71.376 70.2131 73.776 69.4451 75.408C68.1971 86.64 68.6771 98.544 68.9651 110.064C68.6771 112.944 72.3251 113.904 73.3811 115.536C69.7331 116.496 66.1811 120.912 63.9731 124.08C61.2851 121.488 58.3091 118.704 54.4691 118.32C58.4051 116.304 59.2691 111.792 58.7891 107.856V74.16C57.2531 73.104 55.5251 75.408 53.7971 74.64C62.6291 68.496 54.7571 55.248 63.9731 49.104C67.8131 45.36 73.3811 44.592 78.3731 45.648C80.9651 46.32 83.3651 48.048 84.6131 50.352C85.1891 51.216 85.4771 52.272 85.4771 53.52C85.4771 54.768 85.1891 55.824 84.6131 56.688C83.3651 58.608 81.6371 59.664 79.4291 59.856C77.6051 59.568 75.6851 58.512 75.0131 56.688C74.3411 55.536 74.6291 54.576 75.0131 53.424C75.6851 52.368 76.8371 51.696 77.9891 52.368C78.6611 52.848 79.2371 53.52 78.9491 54.384C78.6611 55.728 76.6451 54.96 76.9331 56.688C78.0851 58.224 79.9091 58.8 81.7331 58.128C83.7491 56.688 84.0371 54.384 83.7491 52.176C83.0771 50.256 81.6371 48.24 79.6211 47.568C77.4131 46.8 74.3411 46.992 72.5171 48.432C65.8931 54.576 69.2531 64.656 68.7731 72.528L69.4451 72.336C71.7491 68.784 75.5891 65.712 77.9891 62.352C80.6771 65.04 84.0371 67.344 85.4771 70.896C85.5731 78.672 85.6691 85.872 85.6691 93.072C85.6691 100.08 85.5731 107.184 85.4771 114.576C85.4771 122.352 80.9651 129.36 75.2051 135.504C75.8771 137.424 77.7971 138.096 79.4291 138.768C80.8691 138.864 82.3091 138.864 83.3651 137.808C83.1731 136.752 82.2131 136.08 82.2131 135.216C82.2131 134.928 82.4051 134.544 82.6931 134.256C83.3651 133.776 84.3251 133.104 85.1891 133.776C86.7251 134.832 86.1491 136.752 85.8611 138ZM71.4611 134.064C68.7731 130.704 65.2211 128.208 60.7091 128.592C58.5011 128.688 56.3891 129.84 55.5251 132.048C54.6611 134.352 56.4851 136.176 57.7331 138C60.8051 139.44 65.0291 138.96 68.0051 137.52C69.2531 136.656 71.1731 135.888 71.4611 134.064ZM120.633 69.552C118.041 72.144 115.449 75.312 114.009 78.672C112.857 78.384 112.665 76.944 111.993 75.888C110.553 74.16 108.825 71.472 106.137 72.816L105.081 74.448C105.081 86.064 105.177 98.64 105.849 109.872C106.905 111.696 108.921 112.656 110.937 111.888C111.993 111.12 113.145 110.544 113.241 109.104C115.065 101.616 101.817 95.376 110.937 88.848C112.761 87.984 114.489 89.232 115.257 90.672C115.929 91.728 115.257 92.88 114.777 93.744C114.009 93.36 113.145 92.208 111.897 92.208C111.609 92.208 111.225 92.4 110.937 92.688C109.017 93.456 110.073 95.856 110.361 97.104C113.913 101.424 118.041 106.896 114.777 112.656C112.473 116.592 107.865 119.376 106.137 123.696C101.529 118.992 96.2494 116.496 90.4894 114.672L94.6174 110.352C94.9054 96.816 95.3854 84.72 94.1374 71.568C93.3694 70.8 92.4094 69.744 91.2574 70.608C90.1054 70.896 89.1454 72.432 88.2814 73.104C89.0494 68.208 95.1934 64.848 97.4014 60.336C100.473 62.64 104.793 65.328 105.081 69.552C104.697 69.84 104.985 70.608 104.889 70.992L105.081 71.376C107.385 68.016 111.321 65.04 113.241 61.296C115.161 63.12 116.601 65.808 118.905 68.016C119.577 68.304 119.961 68.88 120.633 69.552ZM151.89 108.336C150.354 116.304 140.562 118.032 137.49 125.424C133.266 120.048 127.698 116.976 121.938 114.768C124.53 112.56 127.602 109.968 128.37 106.512C130.674 95.568 117.714 88.08 124.242 76.944C128.082 70.032 135.954 67.344 140.562 61.392H141.33C145.362 64.656 151.602 68.496 152.082 74.064L151.89 108.336ZM141.33 75.408C140.562 73.2 138.258 71.568 136.242 70.8C134.418 70.416 132.306 70.32 130.866 71.856C126.258 81.168 139.026 86.736 135.954 96.528C134.802 100.368 132.402 103.632 130.386 107.088C134.13 109.104 137.778 111.792 141.33 114.96H142.098L141.33 75.408ZM193.65 110.64C192.594 116.016 186.354 119.568 183.474 124.176C181.746 119.952 176.658 117.072 176.658 111.984L176.37 73.104C175.314 71.664 174.066 71.376 172.53 71.664L169.938 74.928C169.842 87.312 169.074 100.56 170.706 112.464C171.762 113.616 172.914 114.384 174.066 114.768C170.13 116.112 165.906 120.144 164.658 124.464C163.122 123.984 163.506 122.064 162.258 121.104C160.05 119.184 157.746 117.552 154.962 117.072C155.73 115.536 158.226 114.96 158.994 113.04C159.858 99.984 159.666 85.296 159.186 71.376C158.514 70.608 157.266 70.416 156.402 70.896L154.962 72.432C154.866 72.144 154.674 71.952 154.578 71.856C154.482 71.76 154.386 71.76 154.29 71.664C154.674 70.992 155.058 70.416 155.442 69.744C156.114 68.688 156.786 67.728 157.17 67.056L161.778 60.432C165.138 63.312 170.802 66.288 169.746 71.376C172.146 67.728 177.33 65.04 178.866 60.912C181.17 64.272 186.258 65.04 187.026 69.648L187.314 110.16C187.602 111.312 188.37 112.368 189.426 113.04C190.482 113.136 191.346 112.464 191.826 111.696C192.498 110.928 192.594 109.776 193.65 110.64ZM225.015 108.336C223.479 116.304 213.687 118.032 210.615 125.424C206.391 120.048 200.823 116.976 195.063 114.768C197.655 112.56 200.727 109.968 201.495 106.512C203.799 95.568 190.839 88.08 197.367 76.944C201.207 70.032 209.079 67.344 213.687 61.392H214.455C218.487 64.656 224.727 68.496 225.207 74.064L225.015 108.336ZM214.455 75.408C213.687 73.2 211.383 71.568 209.367 70.8C207.543 70.416 205.431 70.32 203.991 71.856C199.383 81.168 212.151 86.736 209.079 96.528C207.927 100.368 205.527 103.632 203.511 107.088C207.255 109.104 210.903 111.792 214.455 114.96H215.223L214.455 75.408ZM261.783 103.44C259.479 113.904 247.383 118.512 240.471 125.424C237.687 121.872 231.255 117.456 227.031 115.44V114.96C230.199 113.712 234.807 113.616 236.535 109.872C236.823 109.2 237.015 108.336 237.015 107.28C237.015 106.224 236.823 105.36 236.535 104.688L235.191 103.728C234.039 104.304 233.751 106.32 231.927 106.032C230.775 105.168 229.911 103.728 230.679 102.48C231.927 100.656 234.135 100.176 235.959 101.232C237.975 102.384 239.127 104.304 239.223 106.512C235.959 111.024 244.791 113.712 247.287 116.016C248.055 116.304 249.399 116.496 250.071 115.632C251.703 114.192 251.703 111.696 251.703 109.488C251.703 108.72 251.799 107.952 251.895 107.28C250.071 101.808 253.911 93.456 248.535 89.904C242.967 90.672 241.239 98.64 234.999 95.28C230.103 92.496 230.007 86.256 230.967 80.976C232.791 71.472 243.639 66.96 249.783 60.816C250.839 62.64 251.895 64.848 253.911 65.712C256.119 66.192 258.423 65.136 259.287 62.928C260.727 59.088 259.479 55.056 256.503 52.368C253.719 49.968 249.687 49.296 245.943 50.352C239.511 52.176 244.215 60.144 239.895 63.696C238.071 65.904 235.767 66.48 233.175 66.768C232.887 66.672 232.791 66.48 232.791 66.192C232.791 65.904 232.887 65.616 232.983 65.52C239.607 62.928 233.559 54.768 239.415 51.408C242.871 48.432 247.671 46.896 252.375 48.336C255.735 49.392 258.711 52.08 260.343 55.248C261.495 58.32 261.207 61.776 260.535 65.136C258.519 69.936 252.951 72.72 250.071 77.136C248.247 76.848 248.535 74.64 246.999 73.584C245.559 71.952 243.927 70.704 241.911 70.032L241.143 70.8C241.431 73.488 241.143 76.368 241.143 79.344C241.143 82.32 241.239 85.2 242.103 87.6C246.423 89.904 248.343 82.224 252.663 82.8C255.255 83.088 257.751 83.856 259.575 86.064C263.415 90.96 263.223 97.392 261.783 103.44ZM302.84 102.48C300.536 112.08 287.48 114 285.944 123.888L285.56 124.368C284.216 123.6 283.256 120.144 281.336 121.296C282.008 128.688 278.456 136.08 271.448 139.536C270.296 139.536 268.952 140.496 267.608 140.496C267.224 140.496 266.84 140.304 266.36 139.92C274.328 135.312 271.256 124.656 272.024 116.784C270.968 115.92 269.24 116.208 268.184 116.496L265.304 118.8C264.536 116.784 265.592 114.192 266.36 112.176C267.416 110.16 269.528 108.624 271.448 107.568L271.16 75.408C270.872 74.352 270.296 73.392 269.144 73.104C266.36 72.048 266.84 75.984 265.112 76.464C265.4 71.28 271.064 67.632 273.464 62.928C275.096 63.216 276.152 65.712 277.88 66.192C280.088 68.016 281.816 70.416 282.104 73.392C285.272 68.688 290.264 66.768 294.104 62.928L302.552 71.856C300.728 74.16 296.888 75.504 296.12 78.96C295.832 87.888 306.392 92.976 302.84 102.48ZM286.808 70.608C284.216 72.144 282.68 74.544 282.392 77.232C281.72 87.504 282.008 98.352 282.392 108.336L283.736 108.912C286.808 108.912 288.824 116.208 292.088 112.176C297.944 105.072 291.32 97.104 288.536 90.48C287.288 85.104 290.072 80.784 293.912 77.232L286.808 70.608ZM338.049 138C336.993 140.016 335.073 140.784 332.865 140.784C331.041 141.168 329.217 140.208 327.777 139.152C326.913 138.48 326.145 137.808 325.377 137.04C323.649 137.904 321.921 138.672 320.193 139.344C317.217 140.4 313.665 141.168 310.977 140.016C308.769 138.96 306.849 137.232 305.985 135.024C305.601 133.008 306.081 131.184 307.425 129.552C308.865 127.056 311.265 127.056 313.665 126.768C318.657 126.288 321.537 130.512 325.377 132.528C327.201 128.592 328.449 124.176 328.449 119.568L327.681 73.776C327.393 73.104 326.625 72.432 325.953 72.144C323.649 71.376 322.401 73.776 321.633 75.408C320.385 86.64 320.865 98.544 321.153 110.064C320.865 112.944 324.513 113.904 325.569 115.536C321.921 116.496 318.369 120.912 316.161 124.08C313.473 121.488 310.497 118.704 306.657 118.32C310.593 116.304 311.457 111.792 310.977 107.856V74.16C309.441 73.104 307.713 75.408 305.985 74.64C314.817 68.496 306.945 55.248 316.161 49.104C320.001 45.36 325.569 44.592 330.561 45.648C333.153 46.32 335.553 48.048 336.801 50.352C337.377 51.216 337.665 52.272 337.665 53.52C337.665 54.768 337.377 55.824 336.801 56.688C335.553 58.608 333.825 59.664 331.617 59.856C329.793 59.568 327.873 58.512 327.201 56.688C326.529 55.536 326.817 54.576 327.201 53.424C327.873 52.368 329.025 51.696 330.177 52.368C330.849 52.848 331.425 53.52 331.137 54.384C330.849 55.728 328.833 54.96 329.121 56.688C330.273 58.224 332.097 58.8 333.921 58.128C335.937 56.688 336.225 54.384 335.937 52.176C335.265 50.256 333.825 48.24 331.809 47.568C329.601 46.8 326.529 46.992 324.705 48.432C318.081 54.576 321.441 64.656 320.961 72.528L321.633 72.336C323.937 68.784 327.777 65.712 330.177 62.352C332.865 65.04 336.225 67.344 337.665 70.896C337.761 78.672 337.857 85.872 337.857 93.072C337.857 100.08 337.761 107.184 337.665 114.576C337.665 122.352 333.153 129.36 327.393 135.504C328.065 137.424 329.985 138.096 331.617 138.768C333.057 138.864 334.497 138.864 335.553 137.808C335.361 136.752 334.401 136.08 334.401 135.216C334.401 134.928 334.593 134.544 334.881 134.256C335.553 133.776 336.513 133.104 337.377 133.776C338.913 134.832 338.337 136.752 338.049 138ZM323.649 134.064C320.961 130.704 317.409 128.208 312.897 128.592C310.689 128.688 308.577 129.84 307.713 132.048C306.849 134.352 308.673 136.176 309.921 138C312.993 139.44 317.217 138.96 320.193 137.52C321.441 136.656 323.361 135.888 323.649 134.064ZM364.757 77.904C361.877 83.568 355.925 86.544 350.837 89.136C349.781 94.896 350.453 101.616 350.549 107.28C351.317 109.488 352.757 112.176 355.349 112.848C357.077 113.04 358.517 112.656 359.765 111.6C361.205 110.16 361.205 107.76 360.821 105.84C358.997 102 353.717 99.024 355.829 94.32C356.501 92.784 357.653 91.824 359.093 91.056C360.917 90.768 362.357 92.4 363.029 93.84C363.317 95.088 363.893 96.816 362.645 97.872C361.973 96.72 361.589 95.472 360.341 94.8C358.517 94.416 357.941 95.856 357.653 97.104C357.653 100.368 361.013 102.288 361.781 105.36C365.333 113.808 356.405 117.648 352.853 123.792C348.821 119.952 341.813 116.88 340.853 110.832L341.045 80.4C341.045 70.032 354.197 68.4 359.573 61.68L360.341 61.872C363.221 65.136 365.813 69.168 365.813 73.584C365.813 75.024 365.429 76.464 364.757 77.904ZM355.829 82.32C356.885 79.728 356.597 76.944 355.541 74.352C354.485 72.816 353.333 70.704 351.029 70.608V86.64C353.045 85.968 355.061 84.336 355.829 82.32ZM399.633 69.552C397.041 72.144 394.449 75.312 393.009 78.672C391.857 78.384 391.665 76.944 390.993 75.888C389.553 74.16 387.825 71.472 385.137 72.816L384.081 74.448C384.081 86.064 384.177 98.64 384.849 109.872C385.905 111.696 387.921 112.656 389.937 111.888C390.993 111.12 392.145 110.544 392.241 109.104C394.065 101.616 380.817 95.376 389.937 88.848C391.761 87.984 393.489 89.232 394.257 90.672C394.929 91.728 394.257 92.88 393.777 93.744C393.009 93.36 392.145 92.208 390.897 92.208C390.609 92.208 390.225 92.4 389.937 92.688C388.017 93.456 389.073 95.856 389.361 97.104C392.913 101.424 397.041 106.896 393.777 112.656C391.473 116.592 386.865 119.376 385.137 123.696C380.529 118.992 375.249 116.496 369.489 114.672L373.617 110.352C373.905 96.816 374.385 84.72 373.137 71.568C372.369 70.8 371.409 69.744 370.257 70.608C369.105 70.896 368.145 72.432 367.281 73.104C368.049 68.208 374.193 64.848 376.401 60.336C379.473 62.64 383.793 65.328 384.081 69.552C383.697 69.84 383.985 70.608 383.889 70.992L384.081 71.376C386.385 68.016 390.321 65.04 392.241 61.296C394.161 63.12 395.601 65.808 397.905 68.016C398.577 68.304 398.961 68.88 399.633 69.552ZM425.226 77.904C422.346 83.568 416.394 86.544 411.306 89.136C410.25 94.896 410.922 101.616 411.018 107.28C411.786 109.488 413.226 112.176 415.818 112.848C417.546 113.04 418.986 112.656 420.234 111.6C421.674 110.16 421.674 107.76 421.29 105.84C419.466 102 414.186 99.024 416.298 94.32C416.97 92.784 418.122 91.824 419.562 91.056C421.386 90.768 422.826 92.4 423.498 93.84C423.786 95.088 424.362 96.816 423.114 97.872C422.442 96.72 422.058 95.472 420.81 94.8C418.986 94.416 418.41 95.856 418.122 97.104C418.122 100.368 421.482 102.288 422.25 105.36C425.802 113.808 416.874 117.648 413.322 123.792C409.29 119.952 402.282 116.88 401.322 110.832L401.514 80.4C401.514 70.032 414.666 68.4 420.042 61.68L420.81 61.872C423.69 65.136 426.282 69.168 426.282 73.584C426.282 75.024 425.898 76.464 425.226 77.904ZM416.298 82.32C417.354 79.728 417.066 76.944 416.01 74.352C414.954 72.816 413.802 70.704 411.498 70.608V86.64C413.514 85.968 415.53 84.336 416.298 82.32Z" fill="white"/>
</svg>
